<?xml version="1.0" encoding="iso-8859-1"?>
<!-- Uploaded to: SVG Repo, www.svgrepo.com, Generator: SVG Repo Mixer Tools -->
<!DOCTYPE svg PUBLIC "-//W3C//DTD SVG 1.1//EN" "http://www.w3.org/Graphics/SVG/1.1/DTD/svg11.dtd">
<svg fill="#000000" height="800px" width="800px" version="1.1" id="Capa_1" xmlns="http://www.w3.org/2000/svg" xmlns:xlink="http://www.w3.org/1999/xlink" 
	 viewBox="0 0 189.975 189.975" xml:space="preserve">
<path d="M165.916,179.975h-2.506v-50.036c2.551-0.227,4.559-2.345,4.559-4.956s-2.007-4.729-4.559-4.956v-50.08
	c2.551-0.227,4.559-2.345,4.559-4.956s-2.007-4.729-4.559-4.956V10h2.506c2.761,0,5-2.239,5-5s-2.239-5-5-5h-7.506H31.565h-7.506
	c-2.761,0-5,2.239-5,5s2.239,5,5,5h2.506v50.036c-2.551,0.227-4.559,2.345-4.559,4.956s2.008,4.729,4.559,4.956v50.08
	c-2.551,0.227-4.559,2.345-4.559,4.956s2.008,4.729,4.559,4.956v50.036h-2.506c-2.761,0-5,2.239-5,5s2.239,5,5,5h7.506H158.41h7.506
	c2.761,0,5-2.239,5-5S168.677,179.975,165.916,179.975z M133.606,95.577c0,21.294-17.324,38.618-38.618,38.618
	s-38.618-17.324-38.618-38.618s17.324-38.618,38.618-38.618S133.606,74.283,133.606,95.577z M45.155,175.908c0,2.761-2.239,5-5,5
	s-5-2.239-5-5v-40.42c0-2.761,2.239-5,5-5s5,2.239,5,5V175.908z M45.155,113.237c0,2.761-2.239,5-5,5s-5-2.239-5-5V74.336
	c0-2.761,2.239-5,5-5s5,2.239,5,5V113.237z M45.155,52.487c0,2.761-2.239,5-5,5s-5-2.239-5-5V13.666c0-2.761,2.239-5,5-5
	s5,2.239,5,5V52.487z M112.759,105.04c0,9.799-7.972,17.771-17.771,17.771s-17.771-7.972-17.771-17.771
	c0-2.306,0.443-4.562,1.317-6.705c0.014-0.035,0.028-0.068,0.043-0.103l11.824-27.251c0.793-1.828,2.595-3.01,4.587-3.01
	c0.001,0,0.002,0,0.003,0c1.993,0.001,3.795,1.186,4.586,3.015l12.021,27.79c0.044,0.101,0.084,0.204,0.121,0.307
	C112.409,101.021,112.759,103.025,112.759,105.04z"/>
</svg>